<svg xmlns="http://www.w3.org/2000/svg" width="433" height="466" fill="none" viewBox="0 0 433 466"><g clip-path="url(#a)"><path fill="#F2F2F2" d="M274.53 264.326 87.792 312.43a24.68 24.68 0 0 1-18.685-2.657 24.7 24.7 0 0 1-11.35-15.083L1.282 75.3A24.71 24.71 0 0 1 3.94 56.61a24.693 24.693 0 0 1 15.078-11.355L192.746.5l44.466 19.913 55.053 213.866a24.71 24.71 0 0 1-2.657 18.692 24.695 24.695 0 0 1-15.078 11.355Z"/><path fill="#fff" d="M20.787 52.132a17.584 17.584 0 0 0-10.737 8.086A17.596 17.596 0 0 0 8.158 73.53l56.474 219.389a17.587 17.587 0 0 0 21.39 12.634l186.737-48.105a17.587 17.587 0 0 0 12.63-21.397l-54.2-210.551-39.078-17.5L20.787 52.131Z"/><path fill="#F2F2F2" d="m236.738 21.545-28.901 7.445a8.212 8.212 0 0 1-10.003-5.909l-5.497-21.353a.517.517 0 0 1 .166-.52.51.51 0 0 1 .54-.077l43.775 19.447a.513.513 0 0 1-.08.967Z"/><path fill="#CCC" d="M221.533 208.899 136.514 230.8a4.11 4.11 0 0 1-3.112-.441 4.097 4.097 0 0 1-1.89-2.513 4.125 4.125 0 0 1 1.509-4.309c.432-.324.922-.56 1.445-.695l85.019-21.901a4.09 4.09 0 0 1 1.6-.089 4.078 4.078 0 0 1 1.512.53 4.12 4.12 0 0 1 1.979 4.114 4.125 4.125 0 0 1-.53 1.513 4.112 4.112 0 0 1-2.513 1.89ZM241.397 218.101l-101.426 26.128a4.107 4.107 0 0 1-4.561-6.068 4.11 4.11 0 0 1 2.513-1.89l101.426-26.128a4.108 4.108 0 0 1 2.048 7.958Z"/><path fill="#E6E6E6" d="M101.814 257.178c8.018 0 14.517-6.501 14.517-14.522 0-8.02-6.499-14.522-14.517-14.522-8.017 0-14.517 6.502-14.517 14.522 0 8.021 6.5 14.522 14.517 14.522Z"/><path fill="#fff" d="M212.493 170.893 99.579 199.97a12.72 12.72 0 0 1-15.472-9.141L60.445 98.872a12.73 12.73 0 0 1 9.137-15.478l112.914-29.077a12.722 12.722 0 0 1 15.472 9.14l23.663 91.958a12.729 12.729 0 0 1-9.138 15.478Z"/><path fill="#E6E6E6" d="M212.493 170.893 99.579 199.97a12.72 12.72 0 0 1-15.472-9.141L60.445 98.872a12.73 12.73 0 0 1 9.137-15.478l112.914-29.077a12.722 12.722 0 0 1 15.472 9.14l23.663 91.958a12.729 12.729 0 0 1-9.138 15.478ZM69.955 84.842a11.225 11.225 0 0 0-8.063 13.657l23.663 91.957a11.22 11.22 0 0 0 13.652 8.065l112.914-29.076a11.23 11.23 0 0 0 8.062-13.657L196.52 63.831a11.223 11.223 0 0 0-13.652-8.065L69.955 84.841Z"/><path fill="#F2F2F2" d="m176.768 85.237-56.987 14.675a2.037 2.037 0 0 1-2.472-1.285 1.97 1.97 0 0 1 .155-1.547 1.978 1.978 0 0 1 1.229-.95l58.009-14.938c2.343 1.188 1.727 3.617.066 4.045ZM179.341 95.236l-56.987 14.675a2.037 2.037 0 0 1-2.472-1.285 1.97 1.97 0 0 1 .155-1.546 1.969 1.969 0 0 1 1.229-.951l58.009-14.937c2.343 1.187 1.727 3.617.066 4.044Z"/><path fill="#E6E6E6" d="m111.5 118.777-17.391 4.478a2.212 2.212 0 0 1-2.693-1.591l-5.283-20.531a2.215 2.215 0 0 1 1.59-2.694l17.392-4.479a2.213 2.213 0 0 1 2.693 1.592l5.283 20.531a2.218 2.218 0 0 1-1.591 2.694Z"/><path fill="#F2F2F2" d="m184.443 115.753-86.971 22.396a2.039 2.039 0 0 1-2.473-1.285 1.966 1.966 0 0 1 1.385-2.497l87.994-22.659c2.344 1.188 1.727 3.617.065 4.045ZM187.017 125.755l-86.971 22.396a2.039 2.039 0 0 1-2.473-1.285 1.964 1.964 0 0 1 1.385-2.496l87.994-22.66c2.343 1.188 1.727 3.617.065 4.045ZM189.589 135.751l-86.971 22.396a2.044 2.044 0 0 1-1.49-.154 2.045 2.045 0 0 1-.983-1.131 1.97 1.97 0 0 1 1.385-2.496l87.994-22.66c2.343 1.188 1.727 3.617.065 4.045ZM192.163 145.753l-86.972 22.396a2.037 2.037 0 0 1-2.472-1.285 1.97 1.97 0 0 1 .155-1.546 1.969 1.969 0 0 1 1.23-.951l87.994-22.659c2.343 1.188 1.726 3.617.065 4.045ZM194.735 155.749l-86.971 22.396a2.04 2.04 0 0 1-2.473-1.285 1.968 1.968 0 0 1 1.385-2.496l87.994-22.66c2.343 1.188 1.727 3.617.065 4.045Z"/><path fill="#fff" d="M102.885 247.747c-.316.082-.65.059-.952-.066l-.019-.008-3.954-1.677a1.523 1.523 0 0 1-.815-.828 1.519 1.519 0 0 1 1.422-2.085c.199.002.396.043.579.122l2.563 1.09 3.358-7.902a1.506 1.506 0 0 1 .827-.813 1.504 1.504 0 0 1 1.16.011l-.019.051.021-.051a1.518 1.518 0 0 1 .801 1.988l-3.951 9.292a1.515 1.515 0 0 1-1.02.874l-.001.002Z"/><path fill="#E6E6E6" d="M346.155 347.929h-192.83a24.684 24.684 0 0 1-17.432-7.235 24.706 24.706 0 0 1-7.232-17.438V96.709a24.708 24.708 0 0 1 7.232-17.438 24.688 24.688 0 0 1 17.432-7.235h179.397l38.098 30.377v220.843a24.71 24.71 0 0 1-7.232 17.438 24.685 24.685 0 0 1-17.433 7.235Z"/><path fill="#fff" d="M153.325 79.139a17.579 17.579 0 0 0-12.413 5.152 17.596 17.596 0 0 0-5.151 12.418v226.547a17.596 17.596 0 0 0 5.151 12.418 17.577 17.577 0 0 0 12.413 5.152h192.83a17.58 17.58 0 0 0 12.414-5.152 17.591 17.591 0 0 0 5.15-12.418V105.835l-33.48-26.696H153.325Z"/><path fill="#FFE615" d="M308.65 145.013h-87.793a4.11 4.11 0 0 1 0-8.218h87.793a4.108 4.108 0 0 1 0 8.218ZM325.592 158.88H220.857a4.106 4.106 0 0 1-2.9-1.206 4.105 4.105 0 0 1 0-5.807 4.109 4.109 0 0 1 2.9-1.205h104.735a4.106 4.106 0 0 1 3.8 5.682 4.107 4.107 0 0 1-3.8 2.536Z"/><path fill="#CCC" d="M308.651 198.938h-87.79a4.11 4.11 0 0 0-2.905 1.203 4.11 4.11 0 0 0 2.905 7.014h87.79a4.106 4.106 0 0 0 4.106-4.109 4.11 4.11 0 0 0-4.106-4.108ZM325.594 212.807H220.861a4.107 4.107 0 0 0-4.107 4.109 4.11 4.11 0 0 0 1.202 2.905 4.11 4.11 0 0 0 2.905 1.203h104.733a4.108 4.108 0 0 0 0-8.217ZM308.65 269.303h-87.793a4.108 4.108 0 0 1 0-8.218h87.793c1.089 0 2.134.433 2.904 1.204a4.108 4.108 0 0 1-2.904 7.014ZM325.592 283.17H220.857a4.109 4.109 0 0 1 0-8.217h104.735a4.106 4.106 0 0 1 3.8 5.682 4.117 4.117 0 0 1-2.226 2.224 4.106 4.106 0 0 1-1.574.311Z"/><path fill="#FFE615" d="M184.298 162.36c8.018 0 14.517-6.502 14.517-14.523 0-8.02-6.499-14.522-14.517-14.522-8.017 0-14.517 6.502-14.517 14.522 0 8.021 6.5 14.523 14.517 14.523Z"/><path fill="#fff" d="M182.86 153.377a1.501 1.501 0 0 1-.906-.301l-.016-.012-3.412-2.611a1.505 1.505 0 0 1-.583-1.005 1.515 1.515 0 0 1 2.428-1.402l2.21 1.695 5.221-6.815a1.511 1.511 0 0 1 1.005-.581 1.507 1.507 0 0 1 1.12.3l-.032.045.034-.045a1.519 1.519 0 0 1 .28 2.126l-6.142 8.013a1.516 1.516 0 0 1-1.206.591l-.001.002Z"/><path fill="#CCC" d="M200.307 209.981a14.528 14.528 0 0 1-4.249 10.271 14.511 14.511 0 0 1-10.265 4.256 2.917 2.917 0 0 1-.374-.015 14.509 14.509 0 0 1-13.144-9.219 14.532 14.532 0 0 1 3.385-15.698 14.515 14.515 0 0 1 24.647 10.405ZM184.298 286.65c8.018 0 14.517-6.502 14.517-14.522 0-8.021-6.499-14.523-14.517-14.523-8.017 0-14.517 6.502-14.517 14.523 0 8.02 6.5 14.522 14.517 14.522ZM370.078 103.391h-29.843a8.217 8.217 0 0 1-8.214-8.218v-22.05a.516.516 0 0 1 .289-.462.514.514 0 0 1 .543.06l37.544 29.754a.519.519 0 0 1 .166.571.518.518 0 0 1-.485.345Z"/><path fill="#FFE615" d="M200.307 209.981a14.528 14.528 0 0 1-4.249 10.271 14.511 14.511 0 0 1-10.266 4.256 2.909 2.909 0 0 1-.373-.015 31.457 31.457 0 0 1 2.817-28.83 14.526 14.526 0 0 1 12.071 14.318ZM216.75 203.05a4.121 4.121 0 0 1 4.111-4.112h21.876a31.07 31.07 0 0 1 2.698 8.217h-24.574a4.111 4.111 0 0 1-4.111-4.105ZM245.943 212.807a31.317 31.317 0 0 1-1.091 8.217h-23.991a4.11 4.11 0 0 1-2.905-1.203 4.11 4.11 0 0 1 2.905-7.014h25.082Z"/><path fill="#3F3D56" d="M300.072 263.483a4.486 4.486 0 0 1-6.164 1.494l-52.322-31.926a4.482 4.482 0 0 1-2.023-2.774 4.48 4.48 0 0 1 .53-3.392 4.483 4.483 0 0 1 6.164-1.494l52.321 31.926a4.489 4.489 0 0 1 1.494 6.166Z"/><path fill="#3F3D56" d="M247.75 231.557a35.877 35.877 0 0 1-36.167 16.77 35.886 35.886 0 0 1-29.327-27.008 35.902 35.902 0 0 1 13.719-37.441 35.865 35.865 0 0 1 39.829-1.648 35.932 35.932 0 0 1 11.946 49.327Zm-53.598-32.705a26.926 26.926 0 0 0 1.235 29.883 26.906 26.906 0 0 0 28.071 10.293 26.913 26.913 0 0 0 20.248-22.004 26.921 26.921 0 0 0-12.573-27.135 26.929 26.929 0 0 0-36.981 8.963Z"/><path fill="#A0616A" d="M362.694 218.623c10.138 0 18.357-8.222 18.357-18.364 0-10.142-8.219-18.364-18.357-18.364s-18.357 8.222-18.357 18.364c0 10.142 8.219 18.364 18.357 18.364ZM361.507 303.208a8.227 8.227 0 0 1 6.221-10.581c.36-.07.724-.115 1.09-.134l19.337-31.046-17.663-16.798a7.053 7.053 0 0 1 7.494-11.652 7.062 7.062 0 0 1 2.312 1.519l24.388 24.055.049.06a6.392 6.392 0 0 1-.445 7.615l-27.093 32.055a7.8 7.8 0 0 1 .202.782 8.233 8.233 0 0 1-4.091 8.811 8.229 8.229 0 0 1-3.986 1.026 8.244 8.244 0 0 1-7.815-5.712ZM332.46 455.837l-9.163-.001-4.359-35.356h13.523l-.001 35.357Z"/><path fill="#2F2E41" d="m334.797 464.722-29.546-.001v-.374a11.51 11.51 0 0 1 7.099-10.628 11.485 11.485 0 0 1 4.401-.876l18.046.001v11.878Z"/><path fill="#A0616A" d="m423.535 443.163-7.873 4.689-21.828-28.147 11.62-6.921 18.081 30.379Z"/><path fill="#2F2E41" d="m430.087 449.601-25.386 15.121-.191-.321a11.516 11.516 0 0 1-1.266-8.714 11.509 11.509 0 0 1 5.263-7.056l15.506-9.236 6.074 10.206ZM317.782 440.266c-6.138-72.305-9.79-139.476 12.649-166.877l.174-.212 37.763 15.111.062.135c.127.277 12.686 27.913 9.757 46.501l9.314 42.863 30.372 50.873a3.364 3.364 0 0 1 .316 2.749 3.367 3.367 0 0 1-1.849 2.057l-13.199 5.809a3.38 3.38 0 0 1-4.221-1.32l-33.039-53.893-18.661-41.336a1.121 1.121 0 0 0-2.136.343L334.74 440.34a3.354 3.354 0 0 1-3.345 3.008h-10.26a3.381 3.381 0 0 1-3.353-3.082Z"/><path fill="#FFE615" d="m330.558 273.962-.18-.086-.028-.198c-1.41-9.877.26-20.851 4.963-32.617a25.894 25.894 0 0 1 12.143-13.34 25.877 25.877 0 0 1 17.904-2.169 25.827 25.827 0 0 1 9.575 4.61 25.838 25.838 0 0 1 6.913 8.073 25.586 25.586 0 0 1 1.774 20.505c-5.93 17.346-13.622 33.576-13.699 33.738l-.162.339-39.203-18.855Z"/><path fill="#A0616A" d="M289.357 249.361a8.23 8.23 0 0 1 6.518-1.646 8.22 8.22 0 0 1 5.567 3.769c.192.313.362.639.508.975l35.841 7.247 9.543-22.433a7.047 7.047 0 0 1 13.061.215 7.05 7.05 0 0 1-.139 5.425l-13.984 31.276-.039.067a6.387 6.387 0 0 1-7.285 2.25l-39.502-14.162a7.549 7.549 0 0 1-.662.463 8.237 8.237 0 0 1-6.663.896 8.224 8.224 0 0 1-5.104-4.377 8.127 8.127 0 0 1-.273-.642 8.256 8.256 0 0 1 2.613-9.323Z"/><path fill="#2F2E41" d="M429.01 219.925c-1.768-3.134-4.344-6.005-7.75-7.163-4.398-1.496-9.161.097-13.683 1.16-3.484.82-7.124 1.321-10.636.63-3.511-.692-6.899-2.736-8.496-5.94-2.351-4.713-.371-10.333-.514-15.598a18.939 18.939 0 0 0-23.86-17.803c-4.33-1.25-8.25-1.366-10.928 1.964a12.704 12.704 0 0 0-12.706 12.711h12.149c-.576 3.099.082 6.3 1.834 8.92 2.145 3.152 5.874 5.433 6.592 9.177.696 3.629-1.77 7.072-4.357 9.71-2.586 2.638-5.586 5.252-6.394 8.857a10.983 10.983 0 0 0 1.572 7.899 25.71 25.71 0 0 0 5.521 6.083 81 81 0 0 0 33.661 17.227c8.748 2.107 18.316 2.653 26.436-1.223a26.244 26.244 0 0 0 13.73-15.794 26.277 26.277 0 0 0-2.171-20.817Z"/><path fill="#CCC" d="M431.753 465.5H289.746a.747.747 0 1 1 0-1.495h142.007a.747.747 0 0 1 0 1.495Z"/></g><defs><clipPath id="a"><path fill="#fff" d="M0 0h432v465H0z" transform="translate(.5 .5)"/></clipPath></defs></svg>